<?xml version="1.0" encoding="UTF-8" standalone="no"?>
<!DOCTYPE svg PUBLIC "-//W3C//DTD SVG 1.1//EN"
 "http://www.w3.org/Graphics/SVG/1.1/DTD/svg11.dtd">
<!-- Generated by graphviz version 14.0.0 (20250921.2048)
 -->
<!-- Pages: 1 -->
<svg width="182pt" height="626pt"
 viewBox="0.00 0.00 182.00 626.00" xmlns="http://www.w3.org/2000/svg" xmlns:xlink="http://www.w3.org/1999/xlink">
<g id="graph0" class="graph" transform="scale(1 1) rotate(0) translate(4 622)">
<polygon fill="white" stroke="none" points="-4,4 -4,-622 178,-622 178,4 -4,4"/>
<g id="clust1" class="cluster">
<title>cluster_8</title>
<polygon fill="none" stroke="black" points="8,-8 8,-610 166,-610 166,-8 8,-8"/>
</g>
<!-- 33 -->
<g id="33" class="node">
<title>33</title>
<polygon fill="none" stroke="black" points="141,-105 33,-105 33,-33 141,-33 141,-105"/>
<text xml:space="preserve" text-anchor="middle" x="87" y="-67.25" font-family="Times New Roman,serif" font-size="5.00">33: docs.run</text>
</g>
<!-- 78 -->
<g id="78" class="node">
<title>78</title>
<polygon fill="none" stroke="black" points="141,-201 33,-201 33,-129 141,-129 141,-201"/>
<text xml:space="preserve" text-anchor="middle" x="87" y="-163.25" font-family="Times New Roman,serif" font-size="5.00">78: docs.markdownDocs</text>
</g>
<!-- 79 -->
<g id="79" class="node">
<title>79</title>
<polygon fill="none" stroke="black" points="141,-297 33,-297 33,-225 141,-225 141,-297"/>
<text xml:space="preserve" text-anchor="middle" x="87" y="-259.25" font-family="Times New Roman,serif" font-size="5.00">79: docs.findDiagramsForView</text>
</g>
<!-- 80 -->
<g id="80" class="node">
<title>80</title>
<polygon fill="none" stroke="black" points="141,-393 33,-393 33,-321 141,-321 141,-393"/>
<text xml:space="preserve" text-anchor="middle" x="87" y="-355.25" font-family="Times New Roman,serif" font-size="5.00">80: docs.findDiagramsForContainer</text>
</g>
<!-- 81 -->
<g id="81" class="node">
<title>81</title>
<polygon fill="none" stroke="black" points="141,-489 33,-489 33,-417 141,-417 141,-489"/>
<text xml:space="preserve" text-anchor="middle" x="87" y="-451.25" font-family="Times New Roman,serif" font-size="5.00">81: docs.findClassDiagramsForComponent</text>
</g>
<!-- 82 -->
<g id="82" class="node">
<title>82</title>
<polygon fill="none" stroke="black" points="141,-585 33,-585 33,-513 141,-513 141,-585"/>
<text xml:space="preserve" text-anchor="middle" x="87" y="-547.25" font-family="Times New Roman,serif" font-size="5.00">82: docs.sanitizeFileName</text>
</g>
</g>
</svg>
