<?xml version="1.0" encoding="UTF-8" standalone="no"?>
<!DOCTYPE svg PUBLIC "-//W3C//DTD SVG 1.1//EN"
 "http://www.w3.org/Graphics/SVG/1.1/DTD/svg11.dtd">
<!-- Generated by graphviz version 14.0.0 (20250921.2048)
 -->
<!-- Pages: 1 -->
<svg width="182pt" height="4274pt"
 viewBox="0.00 0.00 182.00 4274.00" xmlns="http://www.w3.org/2000/svg" xmlns:xlink="http://www.w3.org/1999/xlink">
<g id="graph0" class="graph" transform="scale(1 1) rotate(0) translate(4 4270)">
<polygon fill="white" stroke="none" points="-4,4 -4,-4270 178,-4270 178,4 -4,4"/>
<g id="clust1" class="cluster">
<title>cluster_8</title>
<polygon fill="none" stroke="black" points="8,-8 8,-4258 166,-4258 166,-8 8,-8"/>
</g>
<!-- 34 -->
<g id="34" class="node">
<title>34</title>
<polygon fill="none" stroke="black" points="141,-105 33,-105 33,-33 141,-33 141,-105"/>
<text xml:space="preserve" text-anchor="middle" x="87" y="-67.25" font-family="Times New Roman,serif" font-size="5.00">34: core.resolveConfigFilePath</text>
</g>
<!-- 35 -->
<g id="35" class="node">
<title>35</title>
<polygon fill="none" stroke="black" points="141,-201 33,-201 33,-129 141,-129 141,-201"/>
<text xml:space="preserve" text-anchor="middle" x="87" y="-163.25" font-family="Times New Roman,serif" font-size="5.00">35: core.resolveConfigBaseDir</text>
</g>
<!-- 36 -->
<g id="36" class="node">
<title>36</title>
<polygon fill="none" stroke="black" points="141,-297 33,-297 33,-225 141,-225 141,-297"/>
<text xml:space="preserve" text-anchor="middle" x="87" y="-259.25" font-family="Times New Roman,serif" font-size="5.00">36: core.loadYamlFile</text>
</g>
<!-- 37 -->
<g id="37" class="node">
<title>37</title>
<polygon fill="none" stroke="black" points="141,-393 33,-393 33,-321 141,-321 141,-393"/>
<text xml:space="preserve" text-anchor="middle" x="87" y="-355.25" font-family="Times New Roman,serif" font-size="5.00">37: core.createDefaultConfig</text>
</g>
<!-- 38 -->
<g id="38" class="node">
<title>38</title>
<polygon fill="none" stroke="black" points="141,-489 33,-489 33,-417 141,-417 141,-489"/>
<text xml:space="preserve" text-anchor="middle" x="87" y="-451.25" font-family="Times New Roman,serif" font-size="5.00">38: core.loadConfig</text>
</g>
<!-- 39 -->
<g id="39" class="node">
<title>39</title>
<polygon fill="none" stroke="black" points="141,-585 33,-585 33,-513 141,-513 141,-585"/>
<text xml:space="preserve" text-anchor="middle" x="87" y="-547.25" font-family="Times New Roman,serif" font-size="5.00">39: core.nameToId</text>
</g>
<!-- 40 -->
<g id="40" class="node">
<title>40</title>
<polygon fill="none" stroke="black" points="141,-681 33,-681 33,-609 141,-609 141,-681"/>
<text xml:space="preserve" text-anchor="middle" x="87" y="-643.25" font-family="Times New Roman,serif" font-size="5.00">40: core.sanitizeId</text>
</g>
<!-- 41 -->
<g id="41" class="node">
<title>41</title>
<polygon fill="none" stroke="black" points="141,-777 33,-777 33,-705 141,-705 141,-777"/>
<text xml:space="preserve" text-anchor="middle" x="87" y="-739.25" font-family="Times New Roman,serif" font-size="5.00">41: core.isTTY</text>
</g>
<!-- 42 -->
<g id="42" class="node">
<title>42</title>
<polygon fill="none" stroke="black" points="141,-873 33,-873 33,-801 141,-801 141,-873"/>
<text xml:space="preserve" text-anchor="middle" x="87" y="-835.25" font-family="Times New Roman,serif" font-size="5.00">42: core.getDefaultLogLevel</text>
</g>
<!-- 43 -->
<g id="43" class="node">
<title>43</title>
<polygon fill="none" stroke="black" points="141,-969 33,-969 33,-897 141,-897 141,-969"/>
<text xml:space="preserve" text-anchor="middle" x="87" y="-931.25" font-family="Times New Roman,serif" font-size="5.00">43: core.createPinoLogger</text>
</g>
<!-- 44 -->
<g id="44" class="node">
<title>44</title>
<polygon fill="none" stroke="black" points="141,-1065 33,-1065 33,-993 141,-993 141,-1065"/>
<text xml:space="preserve" text-anchor="middle" x="87" y="-1027.25" font-family="Times New Roman,serif" font-size="5.00">44: core.createLogger</text>
</g>
<!-- 45 -->
<g id="45" class="node">
<title>45</title>
<polygon fill="none" stroke="black" points="141,-1161 33,-1161 33,-1089 141,-1089 141,-1161"/>
<text xml:space="preserve" text-anchor="middle" x="87" y="-1123.25" font-family="Times New Roman,serif" font-size="5.00">45: core.getDefaultUserPluginDir</text>
</g>
<!-- 46 -->
<g id="46" class="node">
<title>46</title>
<polygon fill="none" stroke="black" points="141,-1257 33,-1257 33,-1185 141,-1185 141,-1257"/>
<text xml:space="preserve" text-anchor="middle" x="87" y="-1219.25" font-family="Times New Roman,serif" font-size="5.00">46: core.loadModuleFromPath</text>
</g>
<!-- 47 -->
<g id="47" class="node">
<title>47</title>
<polygon fill="none" stroke="black" points="141,-1353 33,-1353 33,-1281 141,-1281 141,-1353"/>
<text xml:space="preserve" text-anchor="middle" x="87" y="-1315.25" font-family="Times New Roman,serif" font-size="5.00">47: core.getCliDir</text>
</g>
<!-- 48 -->
<g id="48" class="node">
<title>48</title>
<polygon fill="none" stroke="black" points="141,-1449 33,-1449 33,-1377 141,-1377 141,-1449"/>
<text xml:space="preserve" text-anchor="middle" x="87" y="-1411.25" font-family="Times New Roman,serif" font-size="5.00">48: core.expandTilde</text>
</g>
<!-- 49 -->
<g id="49" class="node">
<title>49</title>
<polygon fill="none" stroke="black" points="141,-1545 33,-1545 33,-1473 141,-1473 141,-1545"/>
<text xml:space="preserve" text-anchor="middle" x="87" y="-1507.25" font-family="Times New Roman,serif" font-size="5.00">49: core.resolveArchlettePath</text>
</g>
<!-- 50 -->
<g id="50" class="node">
<title>50</title>
<polygon fill="none" stroke="black" points="141,-1641 33,-1641 33,-1569 141,-1569 141,-1641"/>
<text xml:space="preserve" text-anchor="middle" x="87" y="-1603.25" font-family="Times New Roman,serif" font-size="5.00">50: core.resolveModuleEntry</text>
</g>
<!-- 51 -->
<g id="51" class="node">
<title>51</title>
<polygon fill="none" stroke="black" points="141,-1737 33,-1737 33,-1665 141,-1665 141,-1737"/>
<text xml:space="preserve" text-anchor="middle" x="87" y="-1699.25" font-family="Times New Roman,serif" font-size="5.00">51: core.toFileUrl</text>
</g>
<!-- 52 -->
<g id="52" class="node">
<title>52</title>
<polygon fill="none" stroke="black" points="141,-1833 33,-1833 33,-1761 141,-1761 141,-1833"/>
<text xml:space="preserve" text-anchor="middle" x="87" y="-1795.25" font-family="Times New Roman,serif" font-size="5.00">52: core.writeFile</text>
</g>
<!-- 53 -->
<g id="53" class="node">
<title>53</title>
<polygon fill="none" stroke="black" points="141,-1929 33,-1929 33,-1857 141,-1857 141,-1929"/>
<text xml:space="preserve" text-anchor="middle" x="87" y="-1891.25" font-family="Times New Roman,serif" font-size="5.00">53: core.validatePathSecurity</text>
</g>
<!-- 54 -->
<g id="54" class="node">
<title>54</title>
<polygon fill="none" stroke="black" points="141,-2025 33,-2025 33,-1953 141,-1953 141,-2025"/>
<text xml:space="preserve" text-anchor="middle" x="87" y="-1987.25" font-family="Times New Roman,serif" font-size="5.00">54: core.resolveSecurePath</text>
</g>
<!-- 55 -->
<g id="55" class="node">
<title>55</title>
<polygon fill="none" stroke="black" points="141,-2121 33,-2121 33,-2049 141,-2049 141,-2121"/>
<text xml:space="preserve" text-anchor="middle" x="87" y="-2083.25" font-family="Times New Roman,serif" font-size="5.00">55: core.resolveUserContentPath</text>
</g>
<!-- 56 -->
<g id="56" class="node">
<title>56</title>
<polygon fill="none" stroke="black" points="141,-2217 33,-2217 33,-2145 141,-2145 141,-2217"/>
<text xml:space="preserve" text-anchor="middle" x="87" y="-2179.25" font-family="Times New Roman,serif" font-size="5.00">56: core.resolvePluginPath</text>
</g>
<!-- 57 -->
<g id="57" class="node">
<title>57</title>
<polygon fill="none" stroke="black" points="141,-2313 33,-2313 33,-2241 141,-2241 141,-2313"/>
<text xml:space="preserve" text-anchor="middle" x="87" y="-2275.25" font-family="Times New Roman,serif" font-size="5.00">57: core.loadExtractorModule</text>
</g>
<!-- 58 -->
<g id="58" class="node">
<title>58</title>
<polygon fill="none" stroke="black" points="141,-2409 33,-2409 33,-2337 141,-2337 141,-2409"/>
<text xml:space="preserve" text-anchor="middle" x="87" y="-2371.25" font-family="Times New Roman,serif" font-size="5.00">58: core.loadValidatorModule</text>
</g>
<!-- 59 -->
<g id="59" class="node">
<title>59</title>
<polygon fill="none" stroke="black" points="141,-2505 33,-2505 33,-2433 141,-2433 141,-2505"/>
<text xml:space="preserve" text-anchor="middle" x="87" y="-2467.25" font-family="Times New Roman,serif" font-size="5.00">59: core.loadGeneratorModule</text>
</g>
<!-- 60 -->
<g id="60" class="node">
<title>60</title>
<polygon fill="none" stroke="black" points="141,-2601 33,-2601 33,-2529 141,-2529 141,-2601"/>
<text xml:space="preserve" text-anchor="middle" x="87" y="-2563.25" font-family="Times New Roman,serif" font-size="5.00">60: core.loadRendererModule</text>
</g>
<!-- 61 -->
<g id="61" class="node">
<title>61</title>
<polygon fill="none" stroke="black" points="141,-2697 33,-2697 33,-2625 141,-2625 141,-2697"/>
<text xml:space="preserve" text-anchor="middle" x="87" y="-2659.25" font-family="Times New Roman,serif" font-size="5.00">61: core.loadDocModule</text>
</g>
<!-- 62 -->
<g id="62" class="node">
<title>62</title>
<polygon fill="none" stroke="black" points="141,-2793 33,-2793 33,-2721 141,-2721 141,-2793"/>
<text xml:space="preserve" text-anchor="middle" x="87" y="-2755.25" font-family="Times New Roman,serif" font-size="5.00">62: core.getCacheDir</text>
</g>
<!-- 63 -->
<g id="63" class="node">
<title>63</title>
<polygon fill="none" stroke="black" points="141,-2889 33,-2889 33,-2817 141,-2817 141,-2889"/>
<text xml:space="preserve" text-anchor="middle" x="87" y="-2851.25" font-family="Times New Roman,serif" font-size="5.00">63: core.ensureCacheDir</text>
</g>
<!-- 64 -->
<g id="64" class="node">
<title>64</title>
<polygon fill="none" stroke="black" points="141,-2985 33,-2985 33,-2913 141,-2913 141,-2985"/>
<text xml:space="preserve" text-anchor="middle" x="87" y="-2947.25" font-family="Times New Roman,serif" font-size="5.00">64: core.commandExistsInPath</text>
</g>
<!-- 65 -->
<g id="65" class="node">
<title>65</title>
<polygon fill="none" stroke="black" points="141,-3081 33,-3081 33,-3009 141,-3009 141,-3081"/>
<text xml:space="preserve" text-anchor="middle" x="87" y="-3043.25" font-family="Times New Roman,serif" font-size="5.00">65: core.downloadFile</text>
</g>
<!-- 66 -->
<g id="66" class="node">
<title>66</title>
<polygon fill="none" stroke="black" points="141,-3177 33,-3177 33,-3105 141,-3105 141,-3177"/>
<text xml:space="preserve" text-anchor="middle" x="87" y="-3139.25" font-family="Times New Roman,serif" font-size="5.00">66: core.extractZip</text>
</g>
<!-- 67 -->
<g id="67" class="node">
<title>67</title>
<polygon fill="none" stroke="black" points="141,-3273 33,-3273 33,-3201 141,-3201 141,-3273"/>
<text xml:space="preserve" text-anchor="middle" x="87" y="-3235.25" font-family="Times New Roman,serif" font-size="5.00">67: core.makeExecutable</text>
</g>
<!-- 68 -->
<g id="68" class="node">
<title>68</title>
<polygon fill="none" stroke="black" points="141,-3369 33,-3369 33,-3297 141,-3297 141,-3369"/>
<text xml:space="preserve" text-anchor="middle" x="87" y="-3331.25" font-family="Times New Roman,serif" font-size="5.00">68: core.downloadStructurizr</text>
</g>
<!-- 69 -->
<g id="69" class="node">
<title>69</title>
<polygon fill="none" stroke="black" points="141,-3465 33,-3465 33,-3393 141,-3393 141,-3465"/>
<text xml:space="preserve" text-anchor="middle" x="87" y="-3427.25" font-family="Times New Roman,serif" font-size="5.00">69: core.downloadPlantUML</text>
</g>
<!-- 70 -->
<g id="70" class="node">
<title>70</title>
<polygon fill="none" stroke="black" points="141,-3561 33,-3561 33,-3489 141,-3489 141,-3561"/>
<text xml:space="preserve" text-anchor="middle" x="87" y="-3523.25" font-family="Times New Roman,serif" font-size="5.00">70: core.findStructurizrCLI</text>
</g>
<!-- 71 -->
<g id="71" class="node">
<title>71</title>
<polygon fill="none" stroke="black" points="141,-3657 33,-3657 33,-3585 141,-3585 141,-3657"/>
<text xml:space="preserve" text-anchor="middle" x="87" y="-3619.25" font-family="Times New Roman,serif" font-size="5.00">71: core.downloadStructurizrLite</text>
</g>
<!-- 72 -->
<g id="72" class="node">
<title>72</title>
<polygon fill="none" stroke="black" points="141,-3753 33,-3753 33,-3681 141,-3681 141,-3753"/>
<text xml:space="preserve" text-anchor="middle" x="87" y="-3715.25" font-family="Times New Roman,serif" font-size="5.00">72: core.findStructurizrLite</text>
</g>
<!-- 73 -->
<g id="73" class="node">
<title>73</title>
<polygon fill="none" stroke="black" points="141,-3849 33,-3849 33,-3777 141,-3777 141,-3849"/>
<text xml:space="preserve" text-anchor="middle" x="87" y="-3811.25" font-family="Times New Roman,serif" font-size="5.00">73: core.findPlantUML</text>
</g>
<!-- 74 -->
<g id="74" class="node">
<title>74</title>
<polygon fill="none" stroke="black" points="141,-3945 33,-3945 33,-3873 141,-3873 141,-3945"/>
<text xml:space="preserve" text-anchor="middle" x="87" y="-3907.25" font-family="Times New Roman,serif" font-size="5.00">74: core.checkJava</text>
</g>
<!-- 75 -->
<g id="75" class="node">
<title>75</title>
<polygon fill="none" stroke="black" points="141,-4041 33,-4041 33,-3969 141,-3969 141,-4041"/>
<text xml:space="preserve" text-anchor="middle" x="87" y="-4003.25" font-family="Times New Roman,serif" font-size="5.00">75: core.requireJava</text>
</g>
<!-- 76 -->
<g id="76" class="node">
<title>76</title>
<polygon fill="none" stroke="black" points="141,-4137 33,-4137 33,-4065 141,-4065 141,-4137"/>
<text xml:space="preserve" text-anchor="middle" x="87" y="-4099.25" font-family="Times New Roman,serif" font-size="5.00">76: core.findMermaidCLI</text>
</g>
<!-- 77 -->
<g id="77" class="node">
<title>77</title>
<polygon fill="none" stroke="black" points="141,-4233 33,-4233 33,-4161 141,-4161 141,-4233"/>
<text xml:space="preserve" text-anchor="middle" x="87" y="-4195.25" font-family="Times New Roman,serif" font-size="5.00">77: core.resolveConfig</text>
</g>
</g>
</svg>
