<?xml version="1.0" encoding="UTF-8" standalone="no"?>
<!DOCTYPE svg PUBLIC "-//W3C//DTD SVG 1.1//EN"
 "http://www.w3.org/Graphics/SVG/1.1/DTD/svg11.dtd">
<!-- Generated by graphviz version 14.0.0 (20250921.2048)
 -->
<!-- Pages: 1 -->
<svg width="386pt" height="464pt"
 viewBox="0.00 0.00 386.00 464.00" xmlns="http://www.w3.org/2000/svg" xmlns:xlink="http://www.w3.org/1999/xlink">
<g id="graph0" class="graph" transform="scale(1 1) rotate(0) translate(4 460)">
<polygon fill="white" stroke="none" points="-4,4 -4,-460 382,-460 382,4 -4,4"/>
<g id="clust1" class="cluster">
<title>cluster_7</title>
<polygon fill="none" stroke="black" points="104,-71 104,-289 262,-289 262,-71 104,-71"/>
</g>
<!-- 1 -->
<g id="1" class="node">
<title>1</title>
<polygon fill="none" stroke="black" points="96,-276 0,-276 0,-180 96,-180 96,-276"/>
<text xml:space="preserve" text-anchor="middle" x="48" y="-226.25" font-family="Times New Roman,serif" font-size="5.00">1: User</text>
</g>
<!-- 8 -->
<g id="8" class="node">
<title>8</title>
<polygon fill="none" stroke="black" points="237,-264 129,-264 129,-192 237,-192 237,-264"/>
<text xml:space="preserve" text-anchor="middle" x="183" y="-226.25" font-family="Times New Roman,serif" font-size="5.00">8: @chrislyons&#45;dev/archlette</text>
</g>
<!-- 1&#45;&gt;8 -->
<g id="239" class="edge">
<title>1&#45;&gt;8</title>
<path fill="none" stroke="black" d="M96.27,-228C103.04,-228 110.11,-228 117.16,-228"/>
<polygon fill="black" stroke="black" points="117.03,-231.5 127.03,-228 117.03,-224.5 117.03,-231.5"/>
</g>
<!-- 2 -->
<g id="2" class="node">
<title>2</title>
<polygon fill="none" stroke="black" points="378,-456 270,-456 270,-384 378,-384 378,-456"/>
<text xml:space="preserve" text-anchor="middle" x="324" y="-418.25" font-family="Times New Roman,serif" font-size="5.00">2: FileSystem</text>
</g>
<!-- 3 -->
<g id="3" class="node">
<title>3</title>
<polygon fill="none" stroke="black" points="378,-360 270,-360 270,-288 378,-288 378,-360"/>
<text xml:space="preserve" text-anchor="middle" x="324" y="-322.25" font-family="Times New Roman,serif" font-size="5.00">3: Github Structurizr Repo</text>
</g>
<!-- 4 -->
<g id="4" class="node">
<title>4</title>
<polygon fill="none" stroke="black" points="378,-264 270,-264 270,-192 378,-192 378,-264"/>
<text xml:space="preserve" text-anchor="middle" x="324" y="-226.25" font-family="Times New Roman,serif" font-size="5.00">4: Github PlantUML Repo</text>
</g>
<!-- 5 -->
<g id="5" class="node">
<title>5</title>
<polygon fill="none" stroke="black" points="378,-168 270,-168 270,-96 378,-96 378,-168"/>
<text xml:space="preserve" text-anchor="middle" x="324" y="-130.25" font-family="Times New Roman,serif" font-size="5.00">5: Local System&#39;s unzip utility</text>
</g>
<!-- 6 -->
<g id="6" class="node">
<title>6</title>
<polygon fill="none" stroke="black" points="378,-72 270,-72 270,0 378,0 378,-72"/>
<text xml:space="preserve" text-anchor="middle" x="324" y="-34.25" font-family="Times New Roman,serif" font-size="5.00">6: File System</text>
</g>
<!-- 237 -->
<g id="237" class="node">
<title>237</title>
<polygon fill="none" stroke="black" points="237,-168 129,-168 129,-96 237,-96 237,-168"/>
<text xml:space="preserve" text-anchor="middle" x="183" y="-130.25" font-family="Times New Roman,serif" font-size="5.00">237: @example/astro&#45;app</text>
</g>
<!-- 8&#45;&gt;2 -->
<g id="242" class="edge">
<title>8&#45;&gt;2</title>
<path fill="none" stroke="black" d="M205.7,-264.34C231.18,-307 270,-372 270,-372 270,-372 271.72,-373.56 274.54,-376.11"/>
<polygon fill="black" stroke="black" points="271.95,-378.48 281.71,-382.6 276.65,-373.3 271.95,-378.48"/>
</g>
<!-- 8&#45;&gt;3 -->
<g id="245" class="edge">
<title>8&#45;&gt;3</title>
<path fill="none" stroke="black" d="M236.55,-264.29C244.51,-269.79 252.78,-275.5 260.92,-281.12"/>
<polygon fill="black" stroke="black" points="258.91,-283.99 269.13,-286.8 262.89,-278.23 258.91,-283.99"/>
</g>
<!-- 8&#45;&gt;4 -->
<g id="248" class="edge">
<title>8&#45;&gt;4</title>
<path fill="none" stroke="black" d="M237.34,-228C244.19,-228 251.27,-228 258.27,-228"/>
<polygon fill="black" stroke="black" points="258.06,-231.5 268.06,-228 258.06,-224.5 258.06,-231.5"/>
</g>
<!-- 8&#45;&gt;5 -->
<g id="251" class="edge">
<title>8&#45;&gt;5</title>
<path fill="none" stroke="black" d="M237.32,-195.19C251.03,-186.75 262,-180 262,-180 262,-180 264.21,-178.26 267.78,-175.45"/>
<polygon fill="black" stroke="black" points="269.88,-178.25 275.58,-169.32 265.55,-172.75 269.88,-178.25"/>
</g>
<!-- 8&#45;&gt;6 -->
<g id="254" class="edge">
<title>8&#45;&gt;6</title>
<path fill="none" stroke="black" d="M237.32,-195.19C251.03,-186.75 262,-180 262,-180 262,-180 270,-84 270,-84 270,-84 271.72,-82.44 274.54,-79.89"/>
<polygon fill="black" stroke="black" points="276.65,-82.7 281.71,-73.4 271.95,-77.52 276.65,-82.7"/>
</g>
</g>
</svg>
