<?xml version="1.0" encoding="UTF-8" standalone="no"?>
<!DOCTYPE svg PUBLIC "-//W3C//DTD SVG 1.1//EN"
 "http://www.w3.org/Graphics/SVG/1.1/DTD/svg11.dtd">
<!-- Generated by graphviz version 14.0.0 (20250921.2048)
 -->
<!-- Pages: 1 -->
<svg width="122pt" height="1250pt"
 viewBox="0.00 0.00 122.00 1250.00" xmlns="http://www.w3.org/2000/svg" xmlns:xlink="http://www.w3.org/1999/xlink">
<g id="graph0" class="graph" transform="scale(1 1) rotate(0) translate(4 1246)">
<polygon fill="white" stroke="none" points="-4,4 -4,-1246 118,-1246 118,4 -4,4"/>
<g id="clust1" class="cluster">
<title>cluster_8</title>
<polygon fill="none" stroke="black" points="8,-8 8,-1234 106,-1234 106,-8 8,-8"/>
</g>
<!-- 111 -->
<g id="111" class="node">
<title>111</title>
<polygon fill="none" stroke="black" points="81,-57 33,-57 33,-33 81,-33 81,-57"/>
<text xml:space="preserve" text-anchor="middle" x="57" y="-43.25" font-family="Times New Roman,serif" font-size="5.00">111: basic&#45;astro.extractCodeFromFrontmatter</text>
</g>
<!-- 112 -->
<g id="112" class="node">
<title>112</title>
<polygon fill="none" stroke="black" points="81,-105 33,-105 33,-81 81,-81 81,-105"/>
<text xml:space="preserve" text-anchor="middle" x="57" y="-91.25" font-family="Times New Roman,serif" font-size="5.00">112: basic&#45;astro.createSyntheticRenderFunction</text>
</g>
<!-- 113 -->
<g id="113" class="node">
<title>113</title>
<polygon fill="none" stroke="black" points="81,-153 33,-153 33,-129 81,-129 81,-153"/>
<text xml:space="preserve" text-anchor="middle" x="57" y="-139.25" font-family="Times New Roman,serif" font-size="5.00">113: basic&#45;astro.extractJSDocBlocks</text>
</g>
<!-- 114 -->
<g id="114" class="node">
<title>114</title>
<polygon fill="none" stroke="black" points="81,-201 33,-201 33,-177 81,-177 81,-201"/>
<text xml:space="preserve" text-anchor="middle" x="57" y="-187.25" font-family="Times New Roman,serif" font-size="5.00">114: basic&#45;astro.parseJSDocBlock</text>
</g>
<!-- 115 -->
<g id="115" class="node">
<title>115</title>
<polygon fill="none" stroke="black" points="81,-249 33,-249 33,-225 81,-225 81,-249"/>
<text xml:space="preserve" text-anchor="middle" x="57" y="-235.25" font-family="Times New Roman,serif" font-size="5.00">115: basic&#45;astro.extractFileComponent</text>
</g>
<!-- 116 -->
<g id="116" class="node">
<title>116</title>
<polygon fill="none" stroke="black" points="81,-297 33,-297 33,-273 81,-273 81,-297"/>
<text xml:space="preserve" text-anchor="middle" x="57" y="-283.25" font-family="Times New Roman,serif" font-size="5.00">116: basic&#45;astro.extractComponentName</text>
</g>
<!-- 117 -->
<g id="117" class="node">
<title>117</title>
<polygon fill="none" stroke="black" points="81,-345 33,-345 33,-321 81,-321 81,-345"/>
<text xml:space="preserve" text-anchor="middle" x="57" y="-331.25" font-family="Times New Roman,serif" font-size="5.00">117: basic&#45;astro.extractFileActors</text>
</g>
<!-- 118 -->
<g id="118" class="node">
<title>118</title>
<polygon fill="none" stroke="black" points="81,-393 33,-393 33,-369 81,-369 81,-393"/>
<text xml:space="preserve" text-anchor="middle" x="57" y="-379.25" font-family="Times New Roman,serif" font-size="5.00">118: basic&#45;astro.parseActorTag</text>
</g>
<!-- 119 -->
<g id="119" class="node">
<title>119</title>
<polygon fill="none" stroke="black" points="81,-441 33,-441 33,-417 81,-417 81,-441"/>
<text xml:space="preserve" text-anchor="middle" x="57" y="-427.25" font-family="Times New Roman,serif" font-size="5.00">119: basic&#45;astro.extractFileRelationships</text>
</g>
<!-- 120 -->
<g id="120" class="node">
<title>120</title>
<polygon fill="none" stroke="black" points="81,-489 33,-489 33,-465 81,-465 81,-489"/>
<text xml:space="preserve" text-anchor="middle" x="57" y="-475.25" font-family="Times New Roman,serif" font-size="5.00">120: basic&#45;astro.parseUsesTag</text>
</g>
<!-- 121 -->
<g id="121" class="node">
<title>121</title>
<polygon fill="none" stroke="black" points="81,-537 33,-537 33,-513 81,-513 81,-537"/>
<text xml:space="preserve" text-anchor="middle" x="57" y="-523.25" font-family="Times New Roman,serif" font-size="5.00">121: basic&#45;astro.inferComponentFromPath</text>
</g>
<!-- 122 -->
<g id="122" class="node">
<title>122</title>
<polygon fill="none" stroke="black" points="81,-585 33,-585 33,-561 81,-561 81,-585"/>
<text xml:space="preserve" text-anchor="middle" x="57" y="-571.25" font-family="Times New Roman,serif" font-size="5.00">122: basic&#45;astro.findSourceFiles</text>
</g>
<!-- 123 -->
<g id="123" class="node">
<title>123</title>
<polygon fill="none" stroke="black" points="81,-633 33,-633 33,-609 81,-609 81,-633"/>
<text xml:space="preserve" text-anchor="middle" x="57" y="-619.25" font-family="Times New Roman,serif" font-size="5.00">123: basic&#45;astro.findPackageJsonFiles</text>
</g>
<!-- 124 -->
<g id="124" class="node">
<title>124</title>
<polygon fill="none" stroke="black" points="81,-681 33,-681 33,-657 81,-657 81,-681"/>
<text xml:space="preserve" text-anchor="middle" x="57" y="-667.25" font-family="Times New Roman,serif" font-size="5.00">124: basic&#45;astro.readPackageInfo</text>
</g>
<!-- 125 -->
<g id="125" class="node">
<title>125</title>
<polygon fill="none" stroke="black" points="81,-729 33,-729 33,-705 81,-705 81,-729"/>
<text xml:space="preserve" text-anchor="middle" x="57" y="-715.25" font-family="Times New Roman,serif" font-size="5.00">125: basic&#45;astro.findNearestPackage</text>
</g>
<!-- 126 -->
<g id="126" class="node">
<title>126</title>
<polygon fill="none" stroke="black" points="81,-777 33,-777 33,-753 81,-753 81,-777"/>
<text xml:space="preserve" text-anchor="middle" x="57" y="-763.25" font-family="Times New Roman,serif" font-size="5.00">126: basic&#45;astro.parseFiles</text>
</g>
<!-- 127 -->
<g id="127" class="node">
<title>127</title>
<polygon fill="none" stroke="black" points="81,-825 33,-825 33,-801 81,-801 81,-825"/>
<text xml:space="preserve" text-anchor="middle" x="57" y="-811.25" font-family="Times New Roman,serif" font-size="5.00">127: basic&#45;astro.extractFrontmatter</text>
</g>
<!-- 128 -->
<g id="128" class="node">
<title>128</title>
<polygon fill="none" stroke="black" points="81,-873 33,-873 33,-849 81,-849 81,-873"/>
<text xml:space="preserve" text-anchor="middle" x="57" y="-859.25" font-family="Times New Roman,serif" font-size="5.00">128: basic&#45;astro.extractImports</text>
</g>
<!-- 129 -->
<g id="129" class="node">
<title>129</title>
<polygon fill="none" stroke="black" points="81,-921 33,-921 33,-897 81,-897 81,-921"/>
<text xml:space="preserve" text-anchor="middle" x="57" y="-907.25" font-family="Times New Roman,serif" font-size="5.00">129: basic&#45;astro.findSlots</text>
</g>
<!-- 130 -->
<g id="130" class="node">
<title>130</title>
<polygon fill="none" stroke="black" points="81,-969 33,-969 33,-945 81,-945 81,-969"/>
<text xml:space="preserve" text-anchor="middle" x="57" y="-955.25" font-family="Times New Roman,serif" font-size="5.00">130: basic&#45;astro.findClientDirective</text>
</g>
<!-- 131 -->
<g id="131" class="node">
<title>131</title>
<polygon fill="none" stroke="black" points="81,-1017 33,-1017 33,-993 81,-993 81,-1017"/>
<text xml:space="preserve" text-anchor="middle" x="57" y="-1003.25" font-family="Times New Roman,serif" font-size="5.00">131: basic&#45;astro.extractComponentUsage</text>
</g>
<!-- 132 -->
<g id="132" class="node">
<title>132</title>
<polygon fill="none" stroke="black" points="81,-1065 33,-1065 33,-1041 81,-1041 81,-1065"/>
<text xml:space="preserve" text-anchor="middle" x="57" y="-1051.25" font-family="Times New Roman,serif" font-size="5.00">132: basic&#45;astro.mapToIR</text>
</g>
<!-- 133 -->
<g id="133" class="node">
<title>133</title>
<polygon fill="none" stroke="black" points="81,-1113 33,-1113 33,-1089 81,-1089 81,-1113"/>
<text xml:space="preserve" text-anchor="middle" x="57" y="-1099.25" font-family="Times New Roman,serif" font-size="5.00">133: basic&#45;astro.mapClassToCodeItems</text>
</g>
<!-- 134 -->
<g id="134" class="node">
<title>134</title>
<polygon fill="none" stroke="black" points="81,-1161 33,-1161 33,-1137 81,-1137 81,-1161"/>
<text xml:space="preserve" text-anchor="middle" x="57" y="-1147.25" font-family="Times New Roman,serif" font-size="5.00">134: basic&#45;astro.mapFunctionToCodeItem</text>
</g>
<!-- 83 -->
<g id="83" class="node">
<title>83</title>
<polygon fill="none" stroke="black" points="81,-1209 33,-1209 33,-1185 81,-1185 81,-1209"/>
<text xml:space="preserve" text-anchor="middle" x="57" y="-1195.25" font-family="Times New Roman,serif" font-size="5.00">83: basic&#45;astro.basicAstroExtractor</text>
</g>
</g>
</svg>
