<?xml version="1.0" encoding="UTF-8" standalone="no"?>
<!DOCTYPE svg PUBLIC "-//W3C//DTD SVG 1.1//EN"
 "http://www.w3.org/Graphics/SVG/1.1/DTD/svg11.dtd">
<!-- Generated by graphviz version 14.0.0 (20250921.2048)
 -->
<!-- Pages: 1 -->
<svg width="122pt" height="338pt"
 viewBox="0.00 0.00 122.00 338.00" xmlns="http://www.w3.org/2000/svg" xmlns:xlink="http://www.w3.org/1999/xlink">
<g id="graph0" class="graph" transform="scale(1 1) rotate(0) translate(4 334)">
<polygon fill="white" stroke="none" points="-4,4 -4,-334 118,-334 118,4 -4,4"/>
<g id="clust1" class="cluster">
<title>cluster_8</title>
<polygon fill="none" stroke="black" points="8,-8 8,-322 106,-322 106,-8 8,-8"/>
</g>
<!-- 33 -->
<g id="33" class="node">
<title>33</title>
<polygon fill="none" stroke="black" points="81,-57 33,-57 33,-33 81,-33 81,-57"/>
<text xml:space="preserve" text-anchor="middle" x="57" y="-43.25" font-family="Times New Roman,serif" font-size="5.00">33: docs.run</text>
</g>
<!-- 78 -->
<g id="78" class="node">
<title>78</title>
<polygon fill="none" stroke="black" points="81,-105 33,-105 33,-81 81,-81 81,-105"/>
<text xml:space="preserve" text-anchor="middle" x="57" y="-91.25" font-family="Times New Roman,serif" font-size="5.00">78: docs.markdownDocs</text>
</g>
<!-- 79 -->
<g id="79" class="node">
<title>79</title>
<polygon fill="none" stroke="black" points="81,-153 33,-153 33,-129 81,-129 81,-153"/>
<text xml:space="preserve" text-anchor="middle" x="57" y="-139.25" font-family="Times New Roman,serif" font-size="5.00">79: docs.findDiagramsForView</text>
</g>
<!-- 80 -->
<g id="80" class="node">
<title>80</title>
<polygon fill="none" stroke="black" points="81,-201 33,-201 33,-177 81,-177 81,-201"/>
<text xml:space="preserve" text-anchor="middle" x="57" y="-187.25" font-family="Times New Roman,serif" font-size="5.00">80: docs.findDiagramsForContainer</text>
</g>
<!-- 81 -->
<g id="81" class="node">
<title>81</title>
<polygon fill="none" stroke="black" points="81,-249 33,-249 33,-225 81,-225 81,-249"/>
<text xml:space="preserve" text-anchor="middle" x="57" y="-235.25" font-family="Times New Roman,serif" font-size="5.00">81: docs.findClassDiagramsForComponent</text>
</g>
<!-- 82 -->
<g id="82" class="node">
<title>82</title>
<polygon fill="none" stroke="black" points="81,-297 33,-297 33,-273 81,-273 81,-297"/>
<text xml:space="preserve" text-anchor="middle" x="57" y="-283.25" font-family="Times New Roman,serif" font-size="5.00">82: docs.sanitizeFileName</text>
</g>
</g>
</svg>
