<?xml version="1.0" encoding="UTF-8" standalone="no"?>
<!DOCTYPE svg PUBLIC "-//W3C//DTD SVG 1.1//EN"
 "http://www.w3.org/Graphics/SVG/1.1/DTD/svg11.dtd">
<!-- Generated by graphviz version 14.0.0 (20250921.2048)
 -->
<!-- Pages: 1 -->
<svg width="122pt" height="2162pt"
 viewBox="0.00 0.00 122.00 2162.00" xmlns="http://www.w3.org/2000/svg" xmlns:xlink="http://www.w3.org/1999/xlink">
<g id="graph0" class="graph" transform="scale(1 1) rotate(0) translate(4 2158)">
<polygon fill="white" stroke="none" points="-4,4 -4,-2158 118,-2158 118,4 -4,4"/>
<g id="clust1" class="cluster">
<title>cluster_8</title>
<polygon fill="none" stroke="black" points="8,-8 8,-2146 106,-2146 106,-8 8,-8"/>
</g>
<!-- 34 -->
<g id="34" class="node">
<title>34</title>
<polygon fill="none" stroke="black" points="81,-57 33,-57 33,-33 81,-33 81,-57"/>
<text xml:space="preserve" text-anchor="middle" x="57" y="-43.25" font-family="Times New Roman,serif" font-size="5.00">34: core.resolveConfigFilePath</text>
</g>
<!-- 35 -->
<g id="35" class="node">
<title>35</title>
<polygon fill="none" stroke="black" points="81,-105 33,-105 33,-81 81,-81 81,-105"/>
<text xml:space="preserve" text-anchor="middle" x="57" y="-91.25" font-family="Times New Roman,serif" font-size="5.00">35: core.resolveConfigBaseDir</text>
</g>
<!-- 36 -->
<g id="36" class="node">
<title>36</title>
<polygon fill="none" stroke="black" points="81,-153 33,-153 33,-129 81,-129 81,-153"/>
<text xml:space="preserve" text-anchor="middle" x="57" y="-139.25" font-family="Times New Roman,serif" font-size="5.00">36: core.loadYamlFile</text>
</g>
<!-- 37 -->
<g id="37" class="node">
<title>37</title>
<polygon fill="none" stroke="black" points="81,-201 33,-201 33,-177 81,-177 81,-201"/>
<text xml:space="preserve" text-anchor="middle" x="57" y="-187.25" font-family="Times New Roman,serif" font-size="5.00">37: core.createDefaultConfig</text>
</g>
<!-- 38 -->
<g id="38" class="node">
<title>38</title>
<polygon fill="none" stroke="black" points="81,-249 33,-249 33,-225 81,-225 81,-249"/>
<text xml:space="preserve" text-anchor="middle" x="57" y="-235.25" font-family="Times New Roman,serif" font-size="5.00">38: core.loadConfig</text>
</g>
<!-- 39 -->
<g id="39" class="node">
<title>39</title>
<polygon fill="none" stroke="black" points="81,-297 33,-297 33,-273 81,-273 81,-297"/>
<text xml:space="preserve" text-anchor="middle" x="57" y="-283.25" font-family="Times New Roman,serif" font-size="5.00">39: core.nameToId</text>
</g>
<!-- 40 -->
<g id="40" class="node">
<title>40</title>
<polygon fill="none" stroke="black" points="81,-345 33,-345 33,-321 81,-321 81,-345"/>
<text xml:space="preserve" text-anchor="middle" x="57" y="-331.25" font-family="Times New Roman,serif" font-size="5.00">40: core.sanitizeId</text>
</g>
<!-- 41 -->
<g id="41" class="node">
<title>41</title>
<polygon fill="none" stroke="black" points="81,-393 33,-393 33,-369 81,-369 81,-393"/>
<text xml:space="preserve" text-anchor="middle" x="57" y="-379.25" font-family="Times New Roman,serif" font-size="5.00">41: core.isTTY</text>
</g>
<!-- 42 -->
<g id="42" class="node">
<title>42</title>
<polygon fill="none" stroke="black" points="81,-441 33,-441 33,-417 81,-417 81,-441"/>
<text xml:space="preserve" text-anchor="middle" x="57" y="-427.25" font-family="Times New Roman,serif" font-size="5.00">42: core.getDefaultLogLevel</text>
</g>
<!-- 43 -->
<g id="43" class="node">
<title>43</title>
<polygon fill="none" stroke="black" points="81,-489 33,-489 33,-465 81,-465 81,-489"/>
<text xml:space="preserve" text-anchor="middle" x="57" y="-475.25" font-family="Times New Roman,serif" font-size="5.00">43: core.createPinoLogger</text>
</g>
<!-- 44 -->
<g id="44" class="node">
<title>44</title>
<polygon fill="none" stroke="black" points="81,-537 33,-537 33,-513 81,-513 81,-537"/>
<text xml:space="preserve" text-anchor="middle" x="57" y="-523.25" font-family="Times New Roman,serif" font-size="5.00">44: core.createLogger</text>
</g>
<!-- 45 -->
<g id="45" class="node">
<title>45</title>
<polygon fill="none" stroke="black" points="81,-585 33,-585 33,-561 81,-561 81,-585"/>
<text xml:space="preserve" text-anchor="middle" x="57" y="-571.25" font-family="Times New Roman,serif" font-size="5.00">45: core.getDefaultUserPluginDir</text>
</g>
<!-- 46 -->
<g id="46" class="node">
<title>46</title>
<polygon fill="none" stroke="black" points="81,-633 33,-633 33,-609 81,-609 81,-633"/>
<text xml:space="preserve" text-anchor="middle" x="57" y="-619.25" font-family="Times New Roman,serif" font-size="5.00">46: core.loadModuleFromPath</text>
</g>
<!-- 47 -->
<g id="47" class="node">
<title>47</title>
<polygon fill="none" stroke="black" points="81,-681 33,-681 33,-657 81,-657 81,-681"/>
<text xml:space="preserve" text-anchor="middle" x="57" y="-667.25" font-family="Times New Roman,serif" font-size="5.00">47: core.getCliDir</text>
</g>
<!-- 48 -->
<g id="48" class="node">
<title>48</title>
<polygon fill="none" stroke="black" points="81,-729 33,-729 33,-705 81,-705 81,-729"/>
<text xml:space="preserve" text-anchor="middle" x="57" y="-715.25" font-family="Times New Roman,serif" font-size="5.00">48: core.expandTilde</text>
</g>
<!-- 49 -->
<g id="49" class="node">
<title>49</title>
<polygon fill="none" stroke="black" points="81,-777 33,-777 33,-753 81,-753 81,-777"/>
<text xml:space="preserve" text-anchor="middle" x="57" y="-763.25" font-family="Times New Roman,serif" font-size="5.00">49: core.resolveArchlettePath</text>
</g>
<!-- 50 -->
<g id="50" class="node">
<title>50</title>
<polygon fill="none" stroke="black" points="81,-825 33,-825 33,-801 81,-801 81,-825"/>
<text xml:space="preserve" text-anchor="middle" x="57" y="-811.25" font-family="Times New Roman,serif" font-size="5.00">50: core.resolveModuleEntry</text>
</g>
<!-- 51 -->
<g id="51" class="node">
<title>51</title>
<polygon fill="none" stroke="black" points="81,-873 33,-873 33,-849 81,-849 81,-873"/>
<text xml:space="preserve" text-anchor="middle" x="57" y="-859.25" font-family="Times New Roman,serif" font-size="5.00">51: core.toFileUrl</text>
</g>
<!-- 52 -->
<g id="52" class="node">
<title>52</title>
<polygon fill="none" stroke="black" points="81,-921 33,-921 33,-897 81,-897 81,-921"/>
<text xml:space="preserve" text-anchor="middle" x="57" y="-907.25" font-family="Times New Roman,serif" font-size="5.00">52: core.writeFile</text>
</g>
<!-- 53 -->
<g id="53" class="node">
<title>53</title>
<polygon fill="none" stroke="black" points="81,-969 33,-969 33,-945 81,-945 81,-969"/>
<text xml:space="preserve" text-anchor="middle" x="57" y="-955.25" font-family="Times New Roman,serif" font-size="5.00">53: core.validatePathSecurity</text>
</g>
<!-- 54 -->
<g id="54" class="node">
<title>54</title>
<polygon fill="none" stroke="black" points="81,-1017 33,-1017 33,-993 81,-993 81,-1017"/>
<text xml:space="preserve" text-anchor="middle" x="57" y="-1003.25" font-family="Times New Roman,serif" font-size="5.00">54: core.resolveSecurePath</text>
</g>
<!-- 55 -->
<g id="55" class="node">
<title>55</title>
<polygon fill="none" stroke="black" points="81,-1065 33,-1065 33,-1041 81,-1041 81,-1065"/>
<text xml:space="preserve" text-anchor="middle" x="57" y="-1051.25" font-family="Times New Roman,serif" font-size="5.00">55: core.resolveUserContentPath</text>
</g>
<!-- 56 -->
<g id="56" class="node">
<title>56</title>
<polygon fill="none" stroke="black" points="81,-1113 33,-1113 33,-1089 81,-1089 81,-1113"/>
<text xml:space="preserve" text-anchor="middle" x="57" y="-1099.25" font-family="Times New Roman,serif" font-size="5.00">56: core.resolvePluginPath</text>
</g>
<!-- 57 -->
<g id="57" class="node">
<title>57</title>
<polygon fill="none" stroke="black" points="81,-1161 33,-1161 33,-1137 81,-1137 81,-1161"/>
<text xml:space="preserve" text-anchor="middle" x="57" y="-1147.25" font-family="Times New Roman,serif" font-size="5.00">57: core.loadExtractorModule</text>
</g>
<!-- 58 -->
<g id="58" class="node">
<title>58</title>
<polygon fill="none" stroke="black" points="81,-1209 33,-1209 33,-1185 81,-1185 81,-1209"/>
<text xml:space="preserve" text-anchor="middle" x="57" y="-1195.25" font-family="Times New Roman,serif" font-size="5.00">58: core.loadValidatorModule</text>
</g>
<!-- 59 -->
<g id="59" class="node">
<title>59</title>
<polygon fill="none" stroke="black" points="81,-1257 33,-1257 33,-1233 81,-1233 81,-1257"/>
<text xml:space="preserve" text-anchor="middle" x="57" y="-1243.25" font-family="Times New Roman,serif" font-size="5.00">59: core.loadGeneratorModule</text>
</g>
<!-- 60 -->
<g id="60" class="node">
<title>60</title>
<polygon fill="none" stroke="black" points="81,-1305 33,-1305 33,-1281 81,-1281 81,-1305"/>
<text xml:space="preserve" text-anchor="middle" x="57" y="-1291.25" font-family="Times New Roman,serif" font-size="5.00">60: core.loadRendererModule</text>
</g>
<!-- 61 -->
<g id="61" class="node">
<title>61</title>
<polygon fill="none" stroke="black" points="81,-1353 33,-1353 33,-1329 81,-1329 81,-1353"/>
<text xml:space="preserve" text-anchor="middle" x="57" y="-1339.25" font-family="Times New Roman,serif" font-size="5.00">61: core.loadDocModule</text>
</g>
<!-- 62 -->
<g id="62" class="node">
<title>62</title>
<polygon fill="none" stroke="black" points="81,-1401 33,-1401 33,-1377 81,-1377 81,-1401"/>
<text xml:space="preserve" text-anchor="middle" x="57" y="-1387.25" font-family="Times New Roman,serif" font-size="5.00">62: core.getCacheDir</text>
</g>
<!-- 63 -->
<g id="63" class="node">
<title>63</title>
<polygon fill="none" stroke="black" points="81,-1449 33,-1449 33,-1425 81,-1425 81,-1449"/>
<text xml:space="preserve" text-anchor="middle" x="57" y="-1435.25" font-family="Times New Roman,serif" font-size="5.00">63: core.ensureCacheDir</text>
</g>
<!-- 64 -->
<g id="64" class="node">
<title>64</title>
<polygon fill="none" stroke="black" points="81,-1497 33,-1497 33,-1473 81,-1473 81,-1497"/>
<text xml:space="preserve" text-anchor="middle" x="57" y="-1483.25" font-family="Times New Roman,serif" font-size="5.00">64: core.commandExistsInPath</text>
</g>
<!-- 65 -->
<g id="65" class="node">
<title>65</title>
<polygon fill="none" stroke="black" points="81,-1545 33,-1545 33,-1521 81,-1521 81,-1545"/>
<text xml:space="preserve" text-anchor="middle" x="57" y="-1531.25" font-family="Times New Roman,serif" font-size="5.00">65: core.downloadFile</text>
</g>
<!-- 66 -->
<g id="66" class="node">
<title>66</title>
<polygon fill="none" stroke="black" points="81,-1593 33,-1593 33,-1569 81,-1569 81,-1593"/>
<text xml:space="preserve" text-anchor="middle" x="57" y="-1579.25" font-family="Times New Roman,serif" font-size="5.00">66: core.extractZip</text>
</g>
<!-- 67 -->
<g id="67" class="node">
<title>67</title>
<polygon fill="none" stroke="black" points="81,-1641 33,-1641 33,-1617 81,-1617 81,-1641"/>
<text xml:space="preserve" text-anchor="middle" x="57" y="-1627.25" font-family="Times New Roman,serif" font-size="5.00">67: core.makeExecutable</text>
</g>
<!-- 68 -->
<g id="68" class="node">
<title>68</title>
<polygon fill="none" stroke="black" points="81,-1689 33,-1689 33,-1665 81,-1665 81,-1689"/>
<text xml:space="preserve" text-anchor="middle" x="57" y="-1675.25" font-family="Times New Roman,serif" font-size="5.00">68: core.downloadStructurizr</text>
</g>
<!-- 69 -->
<g id="69" class="node">
<title>69</title>
<polygon fill="none" stroke="black" points="81,-1737 33,-1737 33,-1713 81,-1713 81,-1737"/>
<text xml:space="preserve" text-anchor="middle" x="57" y="-1723.25" font-family="Times New Roman,serif" font-size="5.00">69: core.downloadPlantUML</text>
</g>
<!-- 70 -->
<g id="70" class="node">
<title>70</title>
<polygon fill="none" stroke="black" points="81,-1785 33,-1785 33,-1761 81,-1761 81,-1785"/>
<text xml:space="preserve" text-anchor="middle" x="57" y="-1771.25" font-family="Times New Roman,serif" font-size="5.00">70: core.findStructurizrCLI</text>
</g>
<!-- 71 -->
<g id="71" class="node">
<title>71</title>
<polygon fill="none" stroke="black" points="81,-1833 33,-1833 33,-1809 81,-1809 81,-1833"/>
<text xml:space="preserve" text-anchor="middle" x="57" y="-1819.25" font-family="Times New Roman,serif" font-size="5.00">71: core.downloadStructurizrLite</text>
</g>
<!-- 72 -->
<g id="72" class="node">
<title>72</title>
<polygon fill="none" stroke="black" points="81,-1881 33,-1881 33,-1857 81,-1857 81,-1881"/>
<text xml:space="preserve" text-anchor="middle" x="57" y="-1867.25" font-family="Times New Roman,serif" font-size="5.00">72: core.findStructurizrLite</text>
</g>
<!-- 73 -->
<g id="73" class="node">
<title>73</title>
<polygon fill="none" stroke="black" points="81,-1929 33,-1929 33,-1905 81,-1905 81,-1929"/>
<text xml:space="preserve" text-anchor="middle" x="57" y="-1915.25" font-family="Times New Roman,serif" font-size="5.00">73: core.findPlantUML</text>
</g>
<!-- 74 -->
<g id="74" class="node">
<title>74</title>
<polygon fill="none" stroke="black" points="81,-1977 33,-1977 33,-1953 81,-1953 81,-1977"/>
<text xml:space="preserve" text-anchor="middle" x="57" y="-1963.25" font-family="Times New Roman,serif" font-size="5.00">74: core.checkJava</text>
</g>
<!-- 75 -->
<g id="75" class="node">
<title>75</title>
<polygon fill="none" stroke="black" points="81,-2025 33,-2025 33,-2001 81,-2001 81,-2025"/>
<text xml:space="preserve" text-anchor="middle" x="57" y="-2011.25" font-family="Times New Roman,serif" font-size="5.00">75: core.requireJava</text>
</g>
<!-- 76 -->
<g id="76" class="node">
<title>76</title>
<polygon fill="none" stroke="black" points="81,-2073 33,-2073 33,-2049 81,-2049 81,-2073"/>
<text xml:space="preserve" text-anchor="middle" x="57" y="-2059.25" font-family="Times New Roman,serif" font-size="5.00">76: core.findMermaidCLI</text>
</g>
<!-- 77 -->
<g id="77" class="node">
<title>77</title>
<polygon fill="none" stroke="black" points="81,-2121 33,-2121 33,-2097 81,-2097 81,-2121"/>
<text xml:space="preserve" text-anchor="middle" x="57" y="-2107.25" font-family="Times New Roman,serif" font-size="5.00">77: core.resolveConfig</text>
</g>
</g>
</svg>
