<?xml version="1.0" encoding="UTF-8" standalone="no"?>
<!DOCTYPE svg PUBLIC "-//W3C//DTD SVG 1.1//EN"
 "http://www.w3.org/Graphics/SVG/1.1/DTD/svg11.dtd">
<!-- Generated by graphviz version 14.0.0 (20250921.2048)
 -->
<!-- Pages: 1 -->
<svg width="122pt" height="290pt"
 viewBox="0.00 0.00 122.00 290.00" xmlns="http://www.w3.org/2000/svg" xmlns:xlink="http://www.w3.org/1999/xlink">
<g id="graph0" class="graph" transform="scale(1 1) rotate(0) translate(4 286)">
<polygon fill="white" stroke="none" points="-4,4 -4,-286 118,-286 118,4 -4,4"/>
<g id="clust1" class="cluster">
<title>cluster_8</title>
<polygon fill="none" stroke="black" points="8,-8 8,-274 106,-274 106,-8 8,-8"/>
</g>
<!-- 25 -->
<g id="25" class="node">
<title>25</title>
<polygon fill="none" stroke="black" points="81,-57 33,-57 33,-33 81,-33 81,-57"/>
<text xml:space="preserve" text-anchor="middle" x="57" y="-43.25" font-family="Times New Roman,serif" font-size="5.00">25: extractors.aggregateIRs</text>
</g>
<!-- 26 -->
<g id="26" class="node">
<title>26</title>
<polygon fill="none" stroke="black" points="81,-105 33,-105 33,-81 81,-81 81,-105"/>
<text xml:space="preserve" text-anchor="middle" x="57" y="-91.25" font-family="Times New Roman,serif" font-size="5.00">26: extractors.deduplicateById</text>
</g>
<!-- 27 -->
<g id="27" class="node">
<title>27</title>
<polygon fill="none" stroke="black" points="81,-153 33,-153 33,-129 81,-129 81,-153"/>
<text xml:space="preserve" text-anchor="middle" x="57" y="-139.25" font-family="Times New Roman,serif" font-size="5.00">27: extractors.deduplicateByName</text>
</g>
<!-- 28 -->
<g id="28" class="node">
<title>28</title>
<polygon fill="none" stroke="black" points="81,-201 33,-201 33,-177 81,-177 81,-201"/>
<text xml:space="preserve" text-anchor="middle" x="57" y="-187.25" font-family="Times New Roman,serif" font-size="5.00">28: extractors.deduplicateRelationships</text>
</g>
<!-- 29 -->
<g id="29" class="node">
<title>29</title>
<polygon fill="none" stroke="black" points="81,-249 33,-249 33,-225 81,-225 81,-249"/>
<text xml:space="preserve" text-anchor="middle" x="57" y="-235.25" font-family="Times New Roman,serif" font-size="5.00">29: extractors.run</text>
</g>
</g>
</svg>
