<?xml version="1.0" encoding="UTF-8" standalone="no"?>
<!DOCTYPE svg PUBLIC "-//W3C//DTD SVG 1.1//EN"
 "http://www.w3.org/Graphics/SVG/1.1/DTD/svg11.dtd">
<!-- Generated by graphviz version 14.0.0 (20250921.2048)
 -->
<!-- Pages: 1 -->
<svg width="463pt" height="512pt"
 viewBox="0.00 0.00 463.00 512.00" xmlns="http://www.w3.org/2000/svg" xmlns:xlink="http://www.w3.org/1999/xlink">
<g id="graph0" class="graph" transform="scale(1 1) rotate(0) translate(4 508)">
<polygon fill="white" stroke="none" points="-4,4 -4,-508 458.8,-508 458.8,4 -4,4"/>
<g id="clust1" class="cluster">
<title>cluster_8</title>
<polygon fill="none" stroke="black" points="56,-8 56,-496 389.2,-496 389.2,-8 56,-8"/>
</g>
<!-- 1 -->
<g id="1" class="node">
<title>1</title>
<polygon fill="none" stroke="black" points="48,-388.4 0,-388.4 0,-359.6 48,-359.6 48,-388.4"/>
<text xml:space="preserve" text-anchor="middle" x="24" y="-372.25" font-family="Times New Roman,serif" font-size="5.00">1: User</text>
</g>
<!-- 9 -->
<g id="9" class="node">
<title>9</title>
<polygon fill="none" stroke="black" points="133.8,-389.6 81,-389.6 81,-358.4 133.8,-358.4 133.8,-389.6"/>
<text xml:space="preserve" text-anchor="middle" x="107.4" y="-372.25" font-family="Times New Roman,serif" font-size="5.00">9: CLI</text>
</g>
<!-- 1&#45;&gt;9 -->
<g id="238" class="edge">
<title>1&#45;&gt;9</title>
<path fill="none" stroke="black" d="M48.11,-374C54.69,-374 62.04,-374 69.23,-374"/>
<polygon fill="black" stroke="black" points="69.15,-377.5 79.14,-374 69.14,-370.5 69.15,-377.5"/>
</g>
<!-- 2 -->
<g id="2" class="node">
<title>2</title>
<polygon fill="none" stroke="black" points="454.8,-428.8 397.2,-428.8 397.2,-395.2 454.8,-395.2 454.8,-428.8"/>
<text xml:space="preserve" text-anchor="middle" x="426" y="-410.25" font-family="Times New Roman,serif" font-size="5.00">2: FileSystem</text>
</g>
<!-- 3 -->
<g id="3" class="node">
<title>3</title>
<polygon fill="none" stroke="black" points="454.8,-370.8 397.2,-370.8 397.2,-337.2 454.8,-337.2 454.8,-370.8"/>
<text xml:space="preserve" text-anchor="middle" x="426" y="-352.25" font-family="Times New Roman,serif" font-size="5.00">3: Github Structurizr Repo</text>
</g>
<!-- 4 -->
<g id="4" class="node">
<title>4</title>
<polygon fill="none" stroke="black" points="454.8,-312.8 397.2,-312.8 397.2,-279.2 454.8,-279.2 454.8,-312.8"/>
<text xml:space="preserve" text-anchor="middle" x="426" y="-294.25" font-family="Times New Roman,serif" font-size="5.00">4: Github PlantUML Repo</text>
</g>
<!-- 5 -->
<g id="5" class="node">
<title>5</title>
<polygon fill="none" stroke="black" points="454.8,-254.8 397.2,-254.8 397.2,-221.2 454.8,-221.2 454.8,-254.8"/>
<text xml:space="preserve" text-anchor="middle" x="426" y="-236.25" font-family="Times New Roman,serif" font-size="5.00">5: Local System&#39;s unzip utility</text>
</g>
<!-- 6 -->
<g id="6" class="node">
<title>6</title>
<polygon fill="none" stroke="black" points="454.8,-196.8 397.2,-196.8 397.2,-163.2 454.8,-163.2 454.8,-196.8"/>
<text xml:space="preserve" text-anchor="middle" x="426" y="-178.25" font-family="Times New Roman,serif" font-size="5.00">6: File System</text>
</g>
<!-- 10 -->
<g id="10" class="node">
<title>10</title>
<polygon fill="none" stroke="black" points="210.6,-268.6 157.8,-268.6 157.8,-237.4 210.6,-237.4 210.6,-268.6"/>
<text xml:space="preserve" text-anchor="middle" x="184.2" y="-251.25" font-family="Times New Roman,serif" font-size="5.00">10: extractors</text>
</g>
<!-- 15 -->
<g id="15" class="node">
<title>15</title>
<polygon fill="none" stroke="black" points="364.2,-311.6 311.4,-311.6 311.4,-280.4 364.2,-280.4 364.2,-311.6"/>
<text xml:space="preserve" text-anchor="middle" x="337.8" y="-294.25" font-family="Times New Roman,serif" font-size="5.00">15: core</text>
</g>
<!-- 10&#45;&gt;15 -->
<g id="223" class="edge">
<title>10&#45;&gt;15</title>
<path fill="none" stroke="black" d="M193.36,-237.31C207.39,-210.33 234.6,-158 234.6,-158 234.6,-158 287.4,-158 287.4,-158 287.4,-158 312.99,-229.48 327.33,-269.55"/>
<polygon fill="black" stroke="black" points="323.96,-270.51 330.62,-278.74 330.55,-268.15 323.96,-270.51"/>
</g>
<!-- 16 -->
<g id="16" class="node">
<title>16</title>
<polygon fill="none" stroke="black" points="287.4,-201.6 234.6,-201.6 234.6,-170.4 287.4,-170.4 287.4,-201.6"/>
<text xml:space="preserve" text-anchor="middle" x="261" y="-184.25" font-family="Times New Roman,serif" font-size="5.00">16: basic&#45;astro</text>
</g>
<!-- 10&#45;&gt;16 -->
<g id="224" class="edge">
<title>10&#45;&gt;16</title>
<path fill="none" stroke="black" d="M202.93,-237.12C212.08,-228.92 223.44,-218.75 233.6,-209.65"/>
<polygon fill="black" stroke="black" points="235.9,-212.29 241.01,-203.01 231.23,-207.07 235.9,-212.29"/>
</g>
<!-- 17 -->
<g id="17" class="node">
<title>17</title>
<polygon fill="none" stroke="black" points="287.4,-256.6 234.6,-256.6 234.6,-225.4 287.4,-225.4 287.4,-256.6"/>
<text xml:space="preserve" text-anchor="middle" x="261" y="-239.25" font-family="Times New Roman,serif" font-size="5.00">17: basic_node</text>
</g>
<!-- 10&#45;&gt;17 -->
<g id="225" class="edge">
<title>10&#45;&gt;17</title>
<path fill="none" stroke="black" d="M210.94,-248.87C214.82,-248.25 218.89,-247.6 222.94,-246.94"/>
<polygon fill="black" stroke="black" points="223.4,-250.42 232.72,-245.38 222.29,-243.51 223.4,-250.42"/>
</g>
<!-- 18 -->
<g id="18" class="node">
<title>18</title>
<polygon fill="none" stroke="black" points="287.4,-311.6 234.6,-311.6 234.6,-280.4 287.4,-280.4 287.4,-311.6"/>
<text xml:space="preserve" text-anchor="middle" x="261" y="-294.25" font-family="Times New Roman,serif" font-size="5.00">18: basic&#45;python</text>
</g>
<!-- 10&#45;&gt;18 -->
<g id="226" class="edge">
<title>10&#45;&gt;18</title>
<path fill="none" stroke="black" d="M210.94,-267.8C215.29,-270.3 219.87,-272.93 224.42,-275.55"/>
<polygon fill="black" stroke="black" points="222.48,-278.47 232.9,-280.42 225.97,-272.4 222.48,-278.47"/>
</g>
<!-- 19 -->
<g id="19" class="node">
<title>19</title>
<polygon fill="none" stroke="black" points="287.4,-366.6 234.6,-366.6 234.6,-335.4 287.4,-335.4 287.4,-366.6"/>
<text xml:space="preserve" text-anchor="middle" x="261" y="-349.25" font-family="Times New Roman,serif" font-size="5.00">19: basic_wrangler</text>
</g>
<!-- 10&#45;&gt;19 -->
<g id="227" class="edge">
<title>10&#45;&gt;19</title>
<path fill="none" stroke="black" d="M196.16,-268.76C210.72,-289.67 234.6,-324 234.6,-324 234.6,-324 235.67,-325.14 237.37,-326.94"/>
<polygon fill="black" stroke="black" points="234.49,-328.99 243.89,-333.88 239.59,-324.2 234.49,-328.99"/>
</g>
<!-- 11 -->
<g id="11" class="node">
<title>11</title>
<polygon fill="none" stroke="black" points="210.6,-334.6 157.8,-334.6 157.8,-303.4 210.6,-303.4 210.6,-334.6"/>
<text xml:space="preserve" text-anchor="middle" x="184.2" y="-317.25" font-family="Times New Roman,serif" font-size="5.00">11: validators</text>
</g>
<!-- 11&#45;&gt;15 -->
<g id="228" class="edge">
<title>11&#45;&gt;15</title>
<path fill="none" stroke="black" d="M200.27,-335.02C205.74,-340.83 210.6,-346 210.6,-346 210.6,-346 234.6,-379 234.6,-379 234.6,-379 287.4,-379 287.4,-379 287.4,-379 306.94,-346.17 321.44,-321.81"/>
<polygon fill="black" stroke="black" points="324.39,-323.69 326.5,-313.3 318.38,-320.11 324.39,-323.69"/>
</g>
<!-- 12 -->
<g id="12" class="node">
<title>12</title>
<polygon fill="none" stroke="black" points="210.6,-389.6 157.8,-389.6 157.8,-358.4 210.6,-358.4 210.6,-389.6"/>
<text xml:space="preserve" text-anchor="middle" x="184.2" y="-372.25" font-family="Times New Roman,serif" font-size="5.00">12: generators</text>
</g>
<!-- 12&#45;&gt;15 -->
<g id="229" class="edge">
<title>12&#45;&gt;15</title>
<path fill="none" stroke="black" d="M211.06,-380.28C223.01,-383.18 234.6,-386 234.6,-386 234.6,-386 287.4,-386 287.4,-386 287.4,-386 307.94,-348.57 322.53,-321.99"/>
<polygon fill="black" stroke="black" points="325.5,-323.87 327.24,-313.42 319.36,-320.5 325.5,-323.87"/>
</g>
<!-- 13 -->
<g id="13" class="node">
<title>13</title>
<polygon fill="none" stroke="black" points="210.6,-444.6 157.8,-444.6 157.8,-413.4 210.6,-413.4 210.6,-444.6"/>
<text xml:space="preserve" text-anchor="middle" x="184.2" y="-427.25" font-family="Times New Roman,serif" font-size="5.00">13: renderers</text>
</g>
<!-- 13&#45;&gt;15 -->
<g id="230" class="edge">
<title>13&#45;&gt;15</title>
<path fill="none" stroke="black" d="M210.99,-419.92C241.27,-409.25 287.4,-393 287.4,-393 287.4,-393 308.8,-350.99 323.43,-322.26"/>
<polygon fill="black" stroke="black" points="326.54,-323.87 327.96,-313.37 320.3,-320.69 326.54,-323.87"/>
</g>
<!-- 14 -->
<g id="14" class="node">
<title>14</title>
<polygon fill="none" stroke="black" points="287.4,-64.6 234.6,-64.6 234.6,-33.4 287.4,-33.4 287.4,-64.6"/>
<text xml:space="preserve" text-anchor="middle" x="261" y="-47.25" font-family="Times New Roman,serif" font-size="5.00">14: docs</text>
</g>
<!-- 14&#45;&gt;15 -->
<g id="231" class="edge">
<title>14&#45;&gt;15</title>
<path fill="none" stroke="black" d="M277.07,-65.02C282.54,-70.83 287.4,-76 287.4,-76 287.4,-76 317.61,-210.56 330.78,-269.21"/>
<polygon fill="black" stroke="black" points="327.31,-269.71 332.92,-278.7 334.14,-268.18 327.31,-269.71"/>
</g>
<!-- 15&#45;&gt;2 -->
<g id="241" class="edge">
<title>15&#45;&gt;2</title>
<path fill="none" stroke="black" d="M349.51,-311.96C366.37,-337.07 397.2,-383 397.2,-383 397.2,-383 398.53,-384.39 400.61,-386.56"/>
<polygon fill="black" stroke="black" points="398.01,-388.91 407.46,-393.7 403.07,-384.06 398.01,-388.91"/>
</g>
<!-- 15&#45;&gt;3 -->
<g id="244" class="edge">
<title>15&#45;&gt;3</title>
<path fill="none" stroke="black" d="M362.35,-311.85C370.86,-317.57 380.66,-324.17 389.95,-330.41"/>
<polygon fill="black" stroke="black" points="387.85,-333.22 398.1,-335.9 391.76,-327.41 387.85,-333.22"/>
</g>
<!-- 15&#45;&gt;4 -->
<g id="247" class="edge">
<title>15&#45;&gt;4</title>
<path fill="none" stroke="black" d="M364.66,-296C371.22,-296 378.42,-296 385.49,-296"/>
<polygon fill="black" stroke="black" points="385.24,-299.5 395.24,-296 385.24,-292.5 385.24,-299.5"/>
</g>
<!-- 15&#45;&gt;5 -->
<g id="250" class="edge">
<title>15&#45;&gt;5</title>
<path fill="none" stroke="black" d="M362.35,-280.15C370.86,-274.43 380.66,-267.83 389.95,-261.59"/>
<polygon fill="black" stroke="black" points="391.76,-264.59 398.1,-256.1 387.85,-258.78 391.76,-264.59"/>
</g>
<!-- 15&#45;&gt;6 -->
<g id="253" class="edge">
<title>15&#45;&gt;6</title>
<path fill="none" stroke="black" d="M349.51,-280.04C366.37,-254.93 397.2,-209 397.2,-209 397.2,-209 398.53,-207.61 400.61,-205.44"/>
<polygon fill="black" stroke="black" points="403.07,-207.94 407.46,-198.3 398.01,-203.09 403.07,-207.94"/>
</g>
<!-- 16&#45;&gt;15 -->
<g id="232" class="edge">
<title>16&#45;&gt;15</title>
<path fill="none" stroke="black" d="M277.07,-202.02C282.54,-207.83 287.4,-213 287.4,-213 287.4,-213 306.94,-245.83 321.44,-270.19"/>
<polygon fill="black" stroke="black" points="318.38,-271.89 326.5,-278.7 324.39,-268.31 318.38,-271.89"/>
</g>
<!-- 17&#45;&gt;15 -->
<g id="233" class="edge">
<title>17&#45;&gt;15</title>
<path fill="none" stroke="black" d="M283.64,-256.91C290.55,-261.99 298.35,-267.73 305.8,-273.2"/>
<polygon fill="black" stroke="black" points="303.6,-275.94 313.73,-279.04 307.75,-270.3 303.6,-275.94"/>
</g>
<!-- 18&#45;&gt;15 -->
<g id="234" class="edge">
<title>18&#45;&gt;15</title>
<path fill="none" stroke="black" d="M287.74,-296C291.62,-296 295.69,-296 299.74,-296"/>
<polygon fill="black" stroke="black" points="299.5,-299.5 309.5,-296 299.5,-292.5 299.5,-299.5"/>
</g>
<!-- 19&#45;&gt;15 -->
<g id="235" class="edge">
<title>19&#45;&gt;15</title>
<path fill="none" stroke="black" d="M283.64,-335.09C290.55,-330.01 298.35,-324.27 305.8,-318.8"/>
<polygon fill="black" stroke="black" points="307.75,-321.7 313.73,-312.96 303.6,-316.06 307.75,-321.7"/>
</g>
<!-- 20 -->
<g id="20" class="node">
<title>20</title>
<polygon fill="none" stroke="black" points="287.4,-119.6 234.6,-119.6 234.6,-88.4 287.4,-88.4 287.4,-119.6"/>
<text xml:space="preserve" text-anchor="middle" x="261" y="-102.25" font-family="Times New Roman,serif" font-size="5.00">20: shared</text>
</g>
<!-- 20&#45;&gt;15 -->
<g id="236" class="edge">
<title>20&#45;&gt;15</title>
<path fill="none" stroke="black" d="M273.81,-119.81C280.44,-128.68 287.4,-138 287.4,-138 287.4,-138 314.34,-224.16 328.43,-269.23"/>
<polygon fill="black" stroke="black" points="325.01,-270.04 331.34,-278.54 331.7,-267.95 325.01,-270.04"/>
</g>
<!-- 9&#45;&gt;10 -->
<g id="218" class="edge">
<title>9&#45;&gt;10</title>
<path fill="none" stroke="black" d="M117.92,-358C132.28,-333.88 157.8,-291 157.8,-291 157.8,-291 161.66,-285.22 166.38,-278.17"/>
<polygon fill="black" stroke="black" points="169.09,-280.41 171.73,-270.15 163.27,-276.52 169.09,-280.41"/>
</g>
<!-- 9&#45;&gt;11 -->
<g id="219" class="edge">
<title>9&#45;&gt;11</title>
<path fill="none" stroke="black" d="M130.04,-358.09C136.95,-353.01 144.75,-347.27 152.2,-341.8"/>
<polygon fill="black" stroke="black" points="154.15,-344.7 160.13,-335.96 150,-339.06 154.15,-344.7"/>
</g>
<!-- 9&#45;&gt;12 -->
<g id="220" class="edge">
<title>9&#45;&gt;12</title>
<path fill="none" stroke="black" d="M134.14,-374C138.02,-374 142.09,-374 146.14,-374"/>
<polygon fill="black" stroke="black" points="145.9,-377.5 155.9,-374 145.9,-370.5 145.9,-377.5"/>
</g>
<!-- 9&#45;&gt;13 -->
<g id="221" class="edge">
<title>9&#45;&gt;13</title>
<path fill="none" stroke="black" d="M130.04,-389.91C136.95,-394.99 144.75,-400.73 152.2,-406.2"/>
<polygon fill="black" stroke="black" points="150,-408.94 160.13,-412.04 154.15,-403.3 150,-408.94"/>
</g>
<!-- 9&#45;&gt;15 -->
<g id="222" class="edge">
<title>9&#45;&gt;15</title>
<path fill="none" stroke="black" d="M117.92,-390C132.28,-414.12 157.8,-457 157.8,-457 157.8,-457 210.6,-457 210.6,-457 210.6,-457 287.4,-409 287.4,-409 287.4,-409 310.77,-355.53 325.37,-322.16"/>
<polygon fill="black" stroke="black" points="328.53,-323.66 329.32,-313.1 322.11,-320.86 328.53,-323.66"/>
</g>
</g>
</svg>
