<?xml version="1.0" encoding="UTF-8" standalone="no"?>
<!DOCTYPE svg PUBLIC "-//W3C//DTD SVG 1.1//EN"
 "http://www.w3.org/Graphics/SVG/1.1/DTD/svg11.dtd">
<!-- Generated by graphviz version 14.0.0 (20250921.2048)
 -->
<!-- Pages: 1 -->
<svg width="232pt" height="274pt"
 viewBox="0.00 0.00 232.00 274.00" xmlns="http://www.w3.org/2000/svg" xmlns:xlink="http://www.w3.org/1999/xlink">
<g id="graph0" class="graph" transform="scale(1 1) rotate(0) translate(4 269.6)">
<polygon fill="white" stroke="none" points="-4,4 -4,-269.6 228.4,-269.6 228.4,4 -4,4"/>
<g id="clust1" class="cluster">
<title>cluster_7</title>
<polygon fill="none" stroke="black" points="56,-36.8 56,-173.8 158.8,-173.8 158.8,-36.8 56,-36.8"/>
</g>
<!-- 1 -->
<g id="1" class="node">
<title>1</title>
<polygon fill="none" stroke="black" points="48,-147.2 0,-147.2 0,-118.4 48,-118.4 48,-147.2"/>
<text xml:space="preserve" text-anchor="middle" x="24" y="-131.05" font-family="Times New Roman,serif" font-size="5.00">1: User</text>
</g>
<!-- 8 -->
<g id="8" class="node">
<title>8</title>
<polygon fill="none" stroke="black" points="133.8,-148.4 81,-148.4 81,-117.2 133.8,-117.2 133.8,-148.4"/>
<text xml:space="preserve" text-anchor="middle" x="107.4" y="-131.05" font-family="Times New Roman,serif" font-size="5.00">8: @chrislyons&#45;dev/archlette</text>
</g>
<!-- 1&#45;&gt;8 -->
<g id="239" class="edge">
<title>1&#45;&gt;8</title>
<path fill="none" stroke="black" d="M48.11,-132.8C54.69,-132.8 62.04,-132.8 69.23,-132.8"/>
<polygon fill="black" stroke="black" points="69.15,-136.3 79.14,-132.8 69.14,-129.3 69.15,-136.3"/>
</g>
<!-- 2 -->
<g id="2" class="node">
<title>2</title>
<polygon fill="none" stroke="black" points="224.4,-265.6 166.8,-265.6 166.8,-232 224.4,-232 224.4,-265.6"/>
<text xml:space="preserve" text-anchor="middle" x="195.6" y="-247.05" font-family="Times New Roman,serif" font-size="5.00">2: FileSystem</text>
</g>
<!-- 3 -->
<g id="3" class="node">
<title>3</title>
<polygon fill="none" stroke="black" points="224.4,-207.6 166.8,-207.6 166.8,-174 224.4,-174 224.4,-207.6"/>
<text xml:space="preserve" text-anchor="middle" x="195.6" y="-189.05" font-family="Times New Roman,serif" font-size="5.00">3: Github Structurizr Repo</text>
</g>
<!-- 4 -->
<g id="4" class="node">
<title>4</title>
<polygon fill="none" stroke="black" points="224.4,-149.6 166.8,-149.6 166.8,-116 224.4,-116 224.4,-149.6"/>
<text xml:space="preserve" text-anchor="middle" x="195.6" y="-131.05" font-family="Times New Roman,serif" font-size="5.00">4: Github PlantUML Repo</text>
</g>
<!-- 5 -->
<g id="5" class="node">
<title>5</title>
<polygon fill="none" stroke="black" points="224.4,-91.6 166.8,-91.6 166.8,-58 224.4,-58 224.4,-91.6"/>
<text xml:space="preserve" text-anchor="middle" x="195.6" y="-73.05" font-family="Times New Roman,serif" font-size="5.00">5: Local System&#39;s unzip utility</text>
</g>
<!-- 6 -->
<g id="6" class="node">
<title>6</title>
<polygon fill="none" stroke="black" points="224.4,-33.6 166.8,-33.6 166.8,0 224.4,0 224.4,-33.6"/>
<text xml:space="preserve" text-anchor="middle" x="195.6" y="-15.05" font-family="Times New Roman,serif" font-size="5.00">6: File System</text>
</g>
<!-- 237 -->
<g id="237" class="node">
<title>237</title>
<polygon fill="none" stroke="black" points="133.8,-93.4 81,-93.4 81,-62.2 133.8,-62.2 133.8,-93.4"/>
<text xml:space="preserve" text-anchor="middle" x="107.4" y="-76.05" font-family="Times New Roman,serif" font-size="5.00">237: @example/astro&#45;app</text>
</g>
<!-- 8&#45;&gt;2 -->
<g id="242" class="edge">
<title>8&#45;&gt;2</title>
<path fill="none" stroke="black" d="M119.11,-148.76C135.97,-173.87 166.8,-219.8 166.8,-219.8 166.8,-219.8 168.13,-221.19 170.21,-223.36"/>
<polygon fill="black" stroke="black" points="167.61,-225.71 177.06,-230.5 172.67,-220.86 167.61,-225.71"/>
</g>
<!-- 8&#45;&gt;3 -->
<g id="245" class="edge">
<title>8&#45;&gt;3</title>
<path fill="none" stroke="black" d="M131.95,-148.65C140.46,-154.37 150.26,-160.97 159.55,-167.21"/>
<polygon fill="black" stroke="black" points="157.45,-170.02 167.7,-172.7 161.36,-164.21 157.45,-170.02"/>
</g>
<!-- 8&#45;&gt;4 -->
<g id="248" class="edge">
<title>8&#45;&gt;4</title>
<path fill="none" stroke="black" d="M134.26,-132.8C140.82,-132.8 148.02,-132.8 155.09,-132.8"/>
<polygon fill="black" stroke="black" points="154.84,-136.3 164.84,-132.8 154.84,-129.3 154.84,-136.3"/>
</g>
<!-- 8&#45;&gt;5 -->
<g id="251" class="edge">
<title>8&#45;&gt;5</title>
<path fill="none" stroke="black" d="M134.19,-118.98C146.59,-112.34 158.8,-105.8 158.8,-105.8 158.8,-105.8 162.03,-103 166.55,-99.09"/>
<polygon fill="black" stroke="black" points="168.61,-101.93 173.88,-92.74 164.03,-96.64 168.61,-101.93"/>
</g>
<!-- 8&#45;&gt;6 -->
<g id="254" class="edge">
<title>8&#45;&gt;6</title>
<path fill="none" stroke="black" d="M134.19,-118.98C146.59,-112.34 158.8,-105.8 158.8,-105.8 158.8,-105.8 166.8,-45.8 166.8,-45.8 166.8,-45.8 168.13,-44.41 170.21,-42.24"/>
<polygon fill="black" stroke="black" points="172.67,-44.74 177.06,-35.1 167.61,-39.89 172.67,-44.74"/>
</g>
</g>
</svg>
