<?xml version="1.0" encoding="UTF-8" standalone="no"?>
<!DOCTYPE svg PUBLIC "-//W3C//DTD SVG 1.1//EN"
 "http://www.w3.org/Graphics/SVG/1.1/DTD/svg11.dtd">
<!-- Generated by graphviz version 14.0.0 (20250921.2048)
 -->
<!-- Pages: 1 -->
<svg width="229pt" height="274pt"
 viewBox="0.00 0.00 229.00 274.00" xmlns="http://www.w3.org/2000/svg" xmlns:xlink="http://www.w3.org/1999/xlink">
<g id="graph0" class="graph" transform="scale(1 1) rotate(0) translate(4 269.6)">
<polygon fill="white" stroke="none" points="-4,4 -4,-269.6 224.8,-269.6 224.8,4 -4,4"/>
<!-- 1 -->
<g id="1" class="node">
<title>1</title>
<polygon fill="none" stroke="black" points="48,-147.2 0,-147.2 0,-118.4 48,-118.4 48,-147.2"/>
<text xml:space="preserve" text-anchor="middle" x="24" y="-131.05" font-family="Times New Roman,serif" font-size="5.00">1: User</text>
</g>
<!-- 7 -->
<g id="7" class="node">
<title>7</title>
<polygon fill="none" stroke="black" points="139.2,-152 72,-152 72,-113.6 139.2,-113.6 139.2,-152"/>
<text xml:space="preserve" text-anchor="middle" x="105.6" y="-131.05" font-family="Times New Roman,serif" font-size="5.00">7: @chrislyons&#45;dev/archlette</text>
</g>
<!-- 1&#45;&gt;7 -->
<g id="240" class="edge">
<title>1&#45;&gt;7</title>
<path fill="none" stroke="black" d="M48.45,-132.8C52.19,-132.8 56.16,-132.8 60.19,-132.8"/>
<polygon fill="black" stroke="black" points="60.07,-136.3 70.07,-132.8 60.07,-129.3 60.07,-136.3"/>
</g>
<!-- 2 -->
<g id="2" class="node">
<title>2</title>
<polygon fill="none" stroke="black" points="220.8,-265.6 163.2,-265.6 163.2,-232 220.8,-232 220.8,-265.6"/>
<text xml:space="preserve" text-anchor="middle" x="192" y="-247.05" font-family="Times New Roman,serif" font-size="5.00">2: FileSystem</text>
</g>
<!-- 3 -->
<g id="3" class="node">
<title>3</title>
<polygon fill="none" stroke="black" points="220.8,-207.6 163.2,-207.6 163.2,-174 220.8,-174 220.8,-207.6"/>
<text xml:space="preserve" text-anchor="middle" x="192" y="-189.05" font-family="Times New Roman,serif" font-size="5.00">3: Github Structurizr Repo</text>
</g>
<!-- 4 -->
<g id="4" class="node">
<title>4</title>
<polygon fill="none" stroke="black" points="220.8,-149.6 163.2,-149.6 163.2,-116 220.8,-116 220.8,-149.6"/>
<text xml:space="preserve" text-anchor="middle" x="192" y="-131.05" font-family="Times New Roman,serif" font-size="5.00">4: Github PlantUML Repo</text>
</g>
<!-- 5 -->
<g id="5" class="node">
<title>5</title>
<polygon fill="none" stroke="black" points="220.8,-91.6 163.2,-91.6 163.2,-58 220.8,-58 220.8,-91.6"/>
<text xml:space="preserve" text-anchor="middle" x="192" y="-73.05" font-family="Times New Roman,serif" font-size="5.00">5: Local System&#39;s unzip utility</text>
</g>
<!-- 6 -->
<g id="6" class="node">
<title>6</title>
<polygon fill="none" stroke="black" points="220.8,-33.6 163.2,-33.6 163.2,0 220.8,0 220.8,-33.6"/>
<text xml:space="preserve" text-anchor="middle" x="192" y="-15.05" font-family="Times New Roman,serif" font-size="5.00">6: File System</text>
</g>
<!-- 7&#45;&gt;2 -->
<g id="243" class="edge">
<title>7&#45;&gt;2</title>
<path fill="none" stroke="black" d="M119.16,-152.11C135.84,-177.74 163.2,-219.8 163.2,-219.8 163.2,-219.8 164.53,-221.19 166.61,-223.36"/>
<polygon fill="black" stroke="black" points="164.01,-225.71 173.46,-230.5 169.07,-220.86 164.01,-225.71"/>
</g>
<!-- 7&#45;&gt;3 -->
<g id="246" class="edge">
<title>7&#45;&gt;3</title>
<path fill="none" stroke="black" d="M135.17,-152.44C142.01,-157.14 149.39,-162.2 156.46,-167.07"/>
<polygon fill="black" stroke="black" points="154.38,-169.88 164.6,-172.66 158.34,-164.11 154.38,-169.88"/>
</g>
<!-- 7&#45;&gt;4 -->
<g id="249" class="edge">
<title>7&#45;&gt;4</title>
<path fill="none" stroke="black" d="M139.47,-132.8C143.43,-132.8 147.51,-132.8 151.56,-132.8"/>
<polygon fill="black" stroke="black" points="151.22,-136.3 161.22,-132.8 151.22,-129.3 151.22,-136.3"/>
</g>
<!-- 7&#45;&gt;5 -->
<g id="252" class="edge">
<title>7&#45;&gt;5</title>
<path fill="none" stroke="black" d="M135.17,-113.16C142.01,-108.46 149.39,-103.4 156.46,-98.53"/>
<polygon fill="black" stroke="black" points="158.34,-101.49 164.6,-92.94 154.38,-95.72 158.34,-101.49"/>
</g>
<!-- 7&#45;&gt;6 -->
<g id="255" class="edge">
<title>7&#45;&gt;6</title>
<path fill="none" stroke="black" d="M119.16,-113.49C135.84,-87.86 163.2,-45.8 163.2,-45.8 163.2,-45.8 164.53,-44.41 166.61,-42.24"/>
<polygon fill="black" stroke="black" points="169.07,-44.74 173.46,-35.1 164.01,-39.89 169.07,-44.74"/>
</g>
</g>
</svg>
