<svg xmlns="http://www.w3.org/2000/svg" viewBox="153.17808162828587 53.17802059312962 494.3590467043657 494.3590467043657">
  <g>
    <polygon points="366.7461128234863,218.11680603027344 431.8235855102539,218.11680603027344 399.2848491668701,297.4970245361328" fill="#ecf2c0" stroke="#000000" stroke-width="20" opacity="1" transform="rotate(180 399.2848491668701 257.8069152832031)" />
  </g>
  <g>\n    <polygon points="307,152 381,152 381,414 307,414" fill="#000000" stroke="none" stroke-width="0" opacity="1" transform="rotate(21 344 283)" />\n  </g>\n  <g>\n    <polygon points="415,152 489,152 489,414 415,414" fill="#000000" stroke="none" stroke-width="0" opacity="1" transform="rotate(159 452 283)" />\n  </g>\n  <g>\n    <polygon points="264.5,388 319.5,388 331,418 253,418" fill="#000000" stroke="none" stroke-width="0" opacity="1" />\n  </g>\n  <g>\n    <polygon points="476.5,388 531.5,388 543,418 465,418" fill="#000000" stroke="none" stroke-width="0" opacity="1" />\n  </g>\n  <g>
    <rect x="358.1644592285156" y="148.0333709716797" width="81.525634765625" height="17.163284301757812" fill="#000000" stroke="none" stroke-width="0" opacity="1" />
  </g>
  <g>
    <polygon points="342.431453704834,221.69246673583984 455.4230499267578,221.69246673583984 398.9272518157959,351.13230895996094" fill="#ecf2c0" stroke="#000000" stroke-width="20" opacity="1" transform="rotate(180 398.9272518157959 286.4123878479004)" />
  </g>
  <g>\n    <polygon points="351,307 446,307 462,341 335,341" fill="#09ec4d" stroke="none" stroke-width="0" opacity="1" />\n  </g>\n  <g>
    <circle cx="400.35760498046875" cy="300.3575439453125" r="247.17952335218288" fill="#ecf2c0" stroke="#000000" stroke-width="20" opacity="1" />
    <line x1="400.35760498046875" y1="53.17802059312962" x2="400.35760498046875" y2="547.5370672974954" stroke="#000000" stroke-width="20" opacity="1" />
    <line x1="153.17808162828587" y1="300.3575439453125" x2="647.5371283326516" y2="300.3575439453125" stroke="#000000" stroke-width="20" opacity="1" />
    <line x1="225.57528784768164" y1="125.57522681252539" x2="575.1399221132558" y2="475.1398610780996" stroke="#000000" stroke-width="20" opacity="1" />
    <line x1="575.1399221132558" y1="125.57522681252539" x2="225.57528784768164" y2="475.1398610780996" stroke="#000000" stroke-width="20" opacity="1" />
  </g>
  <g>
    <circle cx="399.6424865722656" cy="298.9272766113281" r="186.71370664074522" fill="#ecf2c0" stroke="#000000" stroke-width="20" opacity="1" />
    <line x1="399.6424865722656" y1="112.21356997058291" x2="399.6424865722656" y2="485.64098325207334" stroke="#000000" stroke-width="20" opacity="1" />
    <line x1="212.9287799315204" y1="298.9272766113281" x2="586.3561932130108" y2="298.9272766113281" stroke="#000000" stroke-width="20" opacity="1" />
    <line x1="267.61595846611897" y1="166.90074850518147" x2="531.6690146784123" y2="430.9538047174748" stroke="#000000" stroke-width="20" opacity="1" />
    <line x1="531.6690146784123" y1="166.90074850518147" x2="267.61595846611897" y2="430.9538047174748" stroke="#000000" stroke-width="20" opacity="1" />
  </g>
</svg>